<?xml version="1.0" standalone="no"?>
<!DOCTYPE svg PUBLIC "-//W3C//DTD SVG 20010904//EN"
 "http://www.w3.org/TR/2001/REC-SVG-20010904/DTD/svg10.dtd">
<svg version="1.0" xmlns="http://www.w3.org/2000/svg"
 width="1400.000000pt" height="1400.000000pt" viewBox="0 0 1400.000000 1400.000000"
 preserveAspectRatio="xMidYMid meet">
<metadata>
Created by potrace 1.14, written by Peter Selinger 2001-2017
</metadata>
<g transform="translate(0.000000,1400.000000) scale(0.100000,-0.100000)"
fill="#000000" stroke="none">
<path d="M6678 13725 c-1 -2 -55 -6 -118 -9 -63 -4 -126 -9 -140 -11 -14 -2
-59 -7 -100 -11 -116 -10 -135 -12 -135 -14 0 -1 -20 -3 -45 -6 -43 -4 -93
-11 -135 -18 -11 -2 -40 -6 -65 -10 -25 -4 -79 -13 -120 -21 -41 -8 -88 -17
-105 -20 -16 -3 -41 -8 -55 -11 -14 -3 -34 -7 -45 -9 -87 -16 -332 -77 -470
-116 -94 -28 -405 -128 -430 -139 -11 -5 -85 -34 -165 -65 -80 -31 -161 -63
-180 -71 -19 -8 -44 -19 -55 -24 -11 -5 -74 -34 -140 -65 -66 -32 -124 -58
-130 -59 -5 -1 -17 -6 -25 -11 -13 -9 -100 -54 -195 -103 -67 -34 -316 -179
-393 -229 -45 -29 -87 -53 -92 -53 -4 0 -10 -3 -12 -8 -1 -4 -31 -25 -65 -47
-35 -22 -63 -43 -63 -47 0 -5 -5 -8 -10 -8 -12 0 -153 -100 -158 -112 -2 -5
-8 -8 -13 -8 -8 0 -68 -44 -179 -133 -134 -106 -200 -162 -200 -169 0 -4 -5
-8 -11 -8 -6 0 -16 -6 -23 -12 -7 -7 -46 -42 -87 -78 -96 -85 -445 -434 -529
-529 -36 -41 -74 -84 -85 -96 -17 -19 -112 -133 -155 -189 -8 -10 -27 -33 -41
-50 -14 -17 -62 -80 -107 -141 -45 -60 -85 -114 -90 -120 -4 -5 -21 -31 -37
-57 -17 -27 -33 -48 -37 -48 -5 0 -8 -6 -8 -13 0 -8 -9 -22 -20 -32 -11 -10
-17 -21 -15 -25 3 -5 1 -10 -3 -12 -13 -5 -92 -126 -134 -205 -12 -24 -26 -43
-30 -43 -4 0 -8 -4 -8 -10 0 -5 -18 -39 -40 -75 -22 -36 -40 -69 -40 -74 0 -5
-5 -11 -11 -13 -5 -2 -11 -11 -12 -20 -2 -9 -8 -22 -14 -29 -14 -18 -64 -117
-62 -125 0 -4 -3 -10 -8 -13 -9 -5 -101 -189 -151 -301 -11 -25 -37 -81 -57
-125 -20 -44 -36 -80 -35 -80 1 0 -4 -13 -11 -30 -7 -16 -13 -32 -14 -35 -1
-3 -5 -14 -10 -25 -41 -102 -57 -142 -61 -155 -2 -8 -25 -73 -50 -145 -43
-121 -110 -335 -120 -380 -2 -11 -8 -31 -13 -45 -11 -28 -32 -111 -62 -245
-11 -49 -22 -97 -24 -105 -18 -78 -39 -184 -50 -250 -2 -14 -12 -79 -23 -145
-18 -108 -24 -153 -37 -265 -2 -19 -7 -58 -10 -87 -6 -52 -9 -85 -22 -273 -15
-217 -8 -812 12 -990 2 -19 7 -69 10 -110 4 -41 8 -86 10 -100 4 -25 10 -74
20 -152 3 -24 10 -68 15 -98 5 -30 11 -71 14 -90 3 -19 10 -60 16 -90 6 -30
13 -66 15 -80 15 -88 120 -523 131 -541 3 -5 7 -19 9 -31 5 -24 43 -154 52
-178 4 -8 7 -18 8 -22 2 -5 3 -9 5 -10 1 -2 3 -11 5 -21 3 -17 79 -234 95
-272 4 -11 15 -36 23 -55 8 -19 18 -46 22 -60 4 -14 23 -59 42 -100 19 -41 34
-77 34 -80 2 -18 176 -391 188 -400 3 -3 7 -12 9 -20 2 -8 9 -22 16 -30 11
-13 26 -43 30 -60 2 -5 23 -42 43 -75 7 -11 15 -27 19 -35 4 -8 29 -52 55 -96
27 -45 49 -85 49 -88 0 -4 5 -12 10 -19 18 -21 110 -167 110 -175 1 -4 14 -23
30 -42 17 -19 30 -39 30 -45 0 -5 11 -23 25 -38 14 -15 22 -27 18 -27 -4 0 -3
-4 3 -8 6 -4 26 -29 44 -57 19 -27 38 -54 42 -60 60 -77 88 -116 88 -125 0 -5
3 -10 8 -10 4 0 18 -16 31 -35 13 -19 34 -46 47 -61 14 -14 43 -50 66 -80 22
-30 45 -54 50 -54 5 0 7 -4 4 -8 -3 -5 3 -15 12 -23 9 -8 40 -41 67 -74 76
-89 131 -148 237 -259 54 -56 98 -104 98 -108 0 -5 4 -8 9 -8 4 0 46 -37 93
-82 46 -46 113 -108 147 -138 35 -30 69 -60 75 -66 24 -23 115 -100 145 -124
18 -14 40 -33 49 -42 9 -10 20 -18 25 -18 4 0 18 -11 31 -25 13 -14 26 -25 30
-25 4 0 21 -13 39 -30 18 -16 37 -30 44 -30 6 0 13 -4 15 -8 1 -5 30 -28 63
-53 33 -24 62 -47 63 -51 2 -5 9 -8 15 -8 7 -1 28 -14 47 -30 19 -17 40 -30
46 -30 7 0 14 -4 16 -8 3 -9 93 -72 103 -72 3 0 15 -9 27 -20 12 -11 34 -26
50 -32 15 -7 28 -16 28 -20 0 -5 7 -8 15 -8 8 0 15 -4 15 -10 0 -5 4 -10 9
-10 5 0 49 -24 98 -54 94 -56 153 -90 243 -139 30 -16 59 -34 65 -38 5 -5 17
-9 26 -9 10 0 19 -4 21 -9 4 -11 361 -184 371 -179 1 0 20 -8 42 -19 46 -24
288 -123 299 -123 5 0 22 -6 39 -14 85 -38 456 -159 590 -192 42 -10 57 -14
132 -34 99 -25 244 -57 440 -94 35 -7 92 -17 120 -21 11 -2 54 -8 95 -14 41
-7 93 -14 115 -16 22 -2 55 -6 73 -9 18 -2 67 -8 110 -12 42 -4 91 -8 107 -10
120 -13 303 -19 565 -19 350 0 557 11 785 40 106 14 264 36 285 39 14 3 41 7
60 10 19 3 94 17 165 32 72 14 143 28 158 31 16 2 97 22 180 44 84 21 163 41
177 45 13 3 52 14 85 25 33 10 69 21 80 23 11 3 67 21 125 41 58 20 110 37
115 39 20 5 91 29 120 41 17 6 57 22 90 35 33 13 79 31 102 41 23 11 45 19 49
19 9 0 87 35 129 58 17 9 31 15 32 14 7 -5 439 203 453 218 3 3 23 14 45 25
22 11 42 22 45 25 3 3 21 13 40 24 40 21 93 52 131 75 52 31 134 82 153 94 58
36 292 192 296 197 3 4 28 21 55 40 28 19 52 36 55 40 3 3 30 23 60 45 30 22
57 42 60 45 3 3 37 30 75 60 39 29 79 62 90 72 11 10 40 35 65 55 24 21 55 48
67 61 13 12 26 22 29 22 3 0 23 18 45 40 22 22 42 40 45 40 9 0 404 399 469
474 33 37 69 78 80 90 11 12 35 40 53 62 60 72 73 89 99 119 58 70 283 374
283 383 0 6 4 12 8 14 5 1 39 50 77 108 39 58 73 107 77 108 5 2 8 7 8 12 0 4
38 71 84 147 46 77 107 184 136 239 29 54 56 103 61 108 5 6 9 18 9 27 0 10 4
19 9 21 4 1 32 53 60 113 114 239 149 318 157 350 3 14 11 25 17 25 6 0 8 3 4
6 -3 3 4 27 15 52 20 48 98 249 102 267 2 6 6 17 9 25 19 47 92 285 88 285 -1
0 5 16 13 35 8 19 15 38 15 43 1 4 1 8 2 10 0 1 2 9 4 17 2 8 16 60 31 115 14
55 28 107 30 115 17 70 26 109 30 130 3 14 7 32 9 40 2 8 7 31 10 50 3 19 8
43 11 52 14 48 68 369 79 479 3 24 7 53 9 65 2 12 7 57 11 100 4 43 8 95 11
114 25 219 25 1011 0 1145 -2 11 -7 60 -11 109 -4 49 -8 96 -10 105 -1 9 -6
41 -9 71 -4 30 -8 66 -11 80 -4 25 -10 66 -20 137 -3 21 -8 52 -12 68 -3 17
-7 39 -9 50 -2 18 -17 97 -28 150 -2 11 -10 43 -16 70 -6 28 -13 59 -15 70 -4
24 -8 41 -30 129 -9 37 -18 72 -19 79 -2 7 -5 19 -8 27 -3 8 -20 69 -38 135
-19 66 -51 172 -72 235 -21 63 -41 122 -43 130 -6 25 -78 217 -110 295 -5 11
-9 22 -10 25 -5 15 -27 68 -35 85 -32 69 -80 177 -80 181 0 7 -183 378 -190
384 -3 3 -16 25 -29 50 -54 104 -72 135 -86 150 -8 9 -13 19 -10 22 3 3 -1 11
-10 18 -8 7 -15 17 -15 23 0 5 -10 24 -23 41 -12 17 -31 48 -42 69 -11 20 -23
37 -27 37 -5 0 -8 4 -8 10 0 17 -291 439 -335 486 -5 6 -21 26 -35 44 -14 19
-47 61 -75 95 -27 34 -63 78 -80 99 -16 21 -41 50 -55 65 -14 15 -54 61 -90
101 -69 78 -265 284 -314 329 -16 14 -52 49 -81 76 -49 47 -164 152 -211 192
-12 10 -43 36 -69 57 -26 22 -63 54 -83 73 -21 18 -40 33 -43 33 -4 0 -21 12
-37 28 -17 15 -70 56 -119 92 -48 36 -90 67 -93 70 -3 3 -34 25 -70 50 -36 24
-66 48 -68 52 -2 4 -9 8 -15 8 -7 0 -23 9 -37 21 -33 26 -238 158 -267 172
-13 6 -23 14 -23 18 0 4 -10 11 -22 15 -12 3 -51 24 -86 46 -36 22 -75 44 -86
49 -12 4 -43 22 -71 38 -141 83 -456 232 -700 331 -11 4 -37 16 -59 25 -21 9
-44 18 -50 20 -6 1 -22 7 -36 13 -14 5 -83 30 -155 54 -71 23 -132 45 -135 48
-3 3 -12 7 -20 9 -22 5 -91 25 -228 65 -67 20 -134 38 -147 40 -14 3 -28 7
-33 10 -5 3 -24 8 -43 11 -19 3 -61 13 -94 21 -33 9 -71 18 -85 20 -14 2 -34
5 -45 8 -63 14 -226 46 -260 51 -23 3 -50 7 -60 9 -20 4 -85 14 -135 21 -14 2
-50 7 -80 10 -30 3 -66 8 -80 10 -23 3 -163 17 -310 31 -72 6 -786 15 -792 9z"/>
</g>
</svg>
